<svg xmlns="http://www.w3.org/2000/svg" width="1240" height="1240"><path d="M885.776 179.557c-.595.596-2.719.919-22.276 3.395-4.95.627-10.575 1.945-12.5 2.929-1.925.985-6.393 2.353-9.929 3.04-3.536.688-8.887 2.562-11.891 4.165-3.004 1.603-6.419 2.914-7.589 2.914-1.17 0-3.694 1.058-5.609 2.351s-5.282 2.934-7.482 3.645c-2.2.712-5.235 2.322-6.745 3.58-1.509 1.257-3.759 2.603-5 2.99-1.24.387-3.733 1.993-5.54 3.569-1.806 1.576-3.943 2.865-4.747 2.865-.805 0-3.133 1.575-5.174 3.5-2.041 1.925-4.129 3.5-4.639 3.5-.916 0-11.548 9.092-20.999 17.957-7.942 7.45-23.694 26.093-32.281 38.207-19.311 27.242-35.595 59.461-44.898 88.836-1.481 4.675-3.151 9.625-3.713 11-1.698 4.16-4.695 16.105-12.295 49-.826 3.575-1.914 10.1-2.419 14.5-.504 4.4-1.392 10.106-1.972 12.681-.581 2.574-1.512 11.349-2.071 19.5-.559 8.15-1.422 19.544-1.918 25.319-1.638 19.05-2.364 58.983-1.228 67.5.587 4.4 1.567 17 2.178 28 .61 11 1.711 22.475 2.445 25.5.734 3.025 1.626 9.1 1.983 13.5.356 4.4 1.264 10.25 2.018 13 .753 2.75 1.654 7.25 2.002 10 1.108 8.762 5.3 26.376 9.043 38 .886 2.75 2.222 7.25 2.968 10 .747 2.75 2.536 8.15 3.975 12 1.439 3.85 3.455 9.25 4.478 12a8781.8 8781.8 0 003.447 9.24c4.111 10.995 19.623 40.876 26.673 51.378 11.459 17.071 16.576 23.981 25.462 34.382 11.774 13.782 22.23 23.806 33.904 32.5 2.584 1.925 6.131 4.647 7.881 6.049 1.75 1.403 6.557 4.509 10.682 6.903 4.125 2.394 9.178 5.409 11.229 6.7 2.05 1.291 4.3 2.349 5 2.351.699.002 4.395 1.577 8.214 3.5 3.818 1.923 7.771 3.497 8.783 3.497 1.012 0 4.084 1.137 6.825 2.526 2.742 1.389 8.836 3.198 13.543 4.018 4.707.821 10.07 2.124 11.917 2.896 7.984 3.336 44.743 4.507 74.989 2.389 13.689-.958 38.566-6.467 53.5-11.846 18.889-6.804 32.505-12.424 39.5-16.302 3.626-2.011 14.908-7.957 20.212-10.653 2.867-1.458 6.017-3.357 7-4.221.984-.864 2.761-1.866 3.95-2.228 1.189-.362 3.889-2.039 6-3.726 2.111-1.687 4.738-3.469 5.838-3.959 1.1-.49 4.475-2.718 7.5-4.95a553.89 553.89 0 0110.5-7.535c6.118-4.253 11.271-8.191 14.538-11.109 1.354-1.21 8.087-6.95 14.962-12.756s15.987-13.843 20.25-17.859c7.733-7.288 7.75-7.315 7.75-12.494 0-3.714-.498-5.612-1.75-6.671-7.197-6.084-12.569-11.247-13.486-12.96-.595-1.114-1.903-5.182-2.906-9.042-1.689-6.5-1.825-12.822-1.841-85.645-.019-88.36-.061-87.766 6.863-98.192 2.052-3.09 5.274-6.658 7.161-7.929 1.886-1.272 3.992-3.424 4.68-4.782 1.645-3.253 1.622-9.44-.041-10.82-.932-.774-31.421-1.177-103.902-1.373l-102.582-.277-4.348-3.113c-4.681-3.352-9.31-10.662-10.357-16.356-.357-1.942-1.488-5.444-2.514-7.781-1.435-3.27-2.408-4.25-4.221-4.25-4.556 0-4.755 1.042-4.765 24.95-.008 20.965-.38 29.791-2.993 71.05-1.372 21.669.87 56.312 3.837 59.279 2.945 2.946 6.664 1.624 9.153-3.255 1.107-2.169 2.012-4.743 2.012-5.72 0-2.586 4.905-11.866 7.62-14.417 4.004-3.762 13.279-4.814 42.38-4.808 14.575.003 35.918.616 47.43 1.363 11.511.746 21.589 1.104 22.394.795 3.908-1.499 4.176 1.425 4.176 45.621v42.477l-7.468 7.082c-9.458 8.971-14.851 13.637-17.191 14.876-1.013.536-2.966 2.016-4.341 3.288-1.375 1.272-4.296 3.063-6.492 3.98-2.195.917-5.267 2.741-6.826 4.053-1.56 1.312-3.501 2.386-4.314 2.386-.813 0-4.447 1.575-8.074 3.5s-7.407 3.5-8.399 3.5c-.992 0-4.862 1.172-8.6 2.604-3.737 1.432-10.395 3.214-14.795 3.96s-10.25 1.88-13 2.521c-5.966 1.391-43.509 2.715-48.5 1.711-1.925-.388-5.525-1.204-8-1.814-2.475-.61-6.975-1.484-10-1.943-3.025-.458-8.738-2.229-12.695-3.936-3.958-1.707-7.833-3.103-8.613-3.103-.779 0-3.116-1.35-5.192-3s-4.571-3-5.543-3c-.972 0-3.653-1.575-5.957-3.5s-4.654-3.5-5.223-3.5c-3.769 0-24.745-21.188-37.777-38.159-6.807-8.864-26-43.42-26-46.811 0-.621-.746-2.569-1.658-4.33-3.772-7.279-11.897-35.987-14.773-52.2-.781-4.4-1.875-10.025-2.431-12.5-1.935-8.612-4.625-44.614-4.631-62-.008-19.037 2.843-56.198 4.986-65 .737-3.025 1.639-7.975 2.005-11 1.015-8.389 7.075-31.862 9.939-38.504.713-1.652 1.627-4.512 2.032-6.354.679-3.094 1.744-5.798 6.551-16.642.975-2.2 2.501-5.758 3.391-7.906 4.343-10.486 18.095-32.244 28.388-44.912 5.775-7.109 20.878-21.785 25.201-24.489 1.375-.86 3.175-2.345 4-3.3 2.657-3.074 25.209-14.104 35-17.119 15.604-4.804 17.805-5.028 44-4.461 23.452.508 24.799.645 31.5 3.192 3.85 1.464 9.7 3.231 13 3.927 3.3.696 8.025 2.453 10.5 3.905 2.475 1.451 5.445 2.644 6.6 2.651 1.154.007 4.079 1.354 6.5 2.994 2.42 1.64 5.09 2.99 5.934 3 .843.01 3.978 1.593 6.966 3.518 2.988 1.925 5.968 3.5 6.622 3.5.654 0 3.006 1.462 5.227 3.25 2.221 1.788 7.235 5.5 11.143 8.25 3.907 2.75 8.786 6.202 10.841 7.671 5.66 4.048 15.607 15.725 19.073 22.393 2.498 4.807 3.212 7.647 3.754 14.936.623 8.398.905 9.284 4.217 13.251 4.885 5.853 4.315 6.744 11.683-18.251 1.46-4.95 3.251-10.8 3.981-13 .73-2.2 2.518-8.05 3.974-13 1.456-4.95 3.115-10.125 3.688-11.5s1.63-4.75 2.349-7.5c1.306-4.994 3.585-12.334 5.591-18 .583-1.65 1.668-5.25 2.41-8 1.427-5.292 3.825-13.015 5.59-18 .583-1.65 1.668-5.25 2.41-8 1.47-5.45 3.906-13.272 5.607-18 .593-1.65 1.713-5.86 2.488-9.355.775-3.495 2.071-7.635 2.881-9.2.809-1.565 1.471-3.959 1.471-5.319 0-2.525-4.37-8.626-6.179-8.626-.55 0-3.772 2.473-7.161 5.496-7.531 6.718-11.239 7.203-19.16 2.504-2.75-1.631-5.726-2.974-6.612-2.983-.887-.009-3.289-1.349-5.338-2.977-2.049-1.629-4.699-3.267-5.888-3.642-1.189-.374-3.727-1.967-5.64-3.539-1.913-1.573-4.016-2.859-4.673-2.859-.658 0-2.54-1.131-4.183-2.514-1.643-1.382-4.715-3.226-6.827-4.098-2.111-.872-5.271-2.665-7.022-3.986-1.751-1.321-3.826-2.402-4.611-2.402-.785 0-3.168-1.181-5.295-2.625-2.128-1.444-5.463-3.188-7.411-3.875-1.948-.687-5.283-2.431-7.411-3.875-2.127-1.444-4.867-2.625-6.088-2.625s-4.645-1.293-7.61-2.873c-2.965-1.58-7.416-3.196-9.891-3.591-2.475-.396-6.784-1.779-9.576-3.075-2.792-1.295-8.642-2.827-13-3.404-4.358-.578-10.624-1.571-13.924-2.208-6.307-1.217-60.661-2.355-61.724-1.292m-315.053 12.199l-77.777.256-1.022 2.688c-.562 1.478-.887 4.287-.723 6.242.25 2.968.886 3.83 3.855 5.223 4.187 1.964 8.763 8.144 10.011 13.519 2.129 9.173.338 18.757-7.626 40.816-2.581 7.15-5.258 15.025-5.949 17.5-1.053 3.774-5.397 17.164-9.569 29.5-.558 1.65-3.236 9.75-5.95 18-2.715 8.25-5.652 17.025-6.527 19.5-.876 2.475-2.717 8.1-4.091 12.5-1.375 4.4-2.96 9.125-3.524 10.5-.88 2.148-25.461 75.179-29.619 88-.803 2.475-3.698 11.025-6.435 19-2.736 7.975-5.784 17.2-6.774 20.5-.99 3.3-3.008 9.307-4.484 13.349-1.476 4.041-3.281 9.441-4.011 12-2.374 8.313-29.15 87.126-29.833 87.809-.364.365-1.522-.115-2.573-1.065-1.783-1.614-2.926-4.235-6.802-15.593-.845-2.475-2.624-7.318-3.955-10.762-1.33-3.444-4.907-13.794-7.95-23-3.042-9.206-6.355-18.988-7.363-21.738-1.007-2.75-4.644-13.775-8.082-24.5-3.437-10.725-7.785-24-9.66-29.5-1.876-5.5-3.84-11.8-4.365-14-.525-2.2-1.574-5.575-2.331-7.5-.758-1.925-4.386-12.95-8.063-24.5-3.676-11.55-7.294-22.575-8.039-24.5-.744-1.925-2.546-7.55-4.004-12.5-1.457-4.95-3.041-9.985-3.519-11.188-1.552-3.904-5.709-16.596-8.455-25.812-1.476-4.95-3.294-10.575-4.04-12.5-.747-1.925-1.635-4.625-1.974-6-.339-1.375-1.227-4.075-1.975-6-.747-1.925-4.376-12.95-8.064-24.5-3.688-11.55-8.043-24.825-9.679-29.5-1.635-4.675-3.556-10.826-4.269-13.669-.712-2.843-1.58-5.631-1.929-6.196-.349-.564-2.022-5.866-3.718-11.78-2.729-9.521-3.032-11.851-2.645-20.305.536-11.707 3.682-19.197 10.434-24.841 3.747-3.132 4.345-4.163 4.345-7.487 0-2.119-.466-4.724-1.035-5.788-1.01-1.887-2.958-1.934-80.378-1.934-66.011 0-79.533.23-80.481 1.372-.626.754-1.228 3.447-1.339 5.984-.193 4.435.018 4.808 5.435 9.636 9.297 8.287 10.876 12.042 11.919 28.349.486 7.613.546 14.363.132 15-.414.637-.978 134.359-1.253 297.159l-.5 296-2.195 4.5c-1.958 4.013-9.11 12.296-13.635 15.789-1.269.98-1.67 2.917-1.67 8.059 0 10.781-.679 10.453 22.623 10.933 11.883.244 30.076-.233 45.237-1.186 13.948-.877 31.97-1.595 40.05-1.595 10.092 0 15.066-.376 15.89-1.2 1.285-1.285 1.44-6.71.309-10.8-.38-1.375-2.054-3.175-3.719-4-4.243-2.102-9.652-8.594-12.081-14.5-1.131-2.75-2.45-9.05-2.932-14-1.222-12.542-.752-283.386.564-325.5.593-18.975 1.372-47.23 1.73-62.788.359-15.559.962-27.934 1.34-27.5.379.433 1.696 4.163 2.927 8.288 1.232 4.125 2.834 9.075 3.562 11 .728 1.925 2.334 6.875 3.571 11s3.253 10.2 4.482 13.5c1.228 3.3 4.161 12.075 6.518 19.5 2.356 7.425 5.6 17.325 7.207 22 1.608 4.675 3.523 10.525 4.255 13 .733 2.475 2.52 7.875 3.971 12 2.573 7.311 5.304 15.888 7.959 25 .721 2.475 1.985 6.075 2.808 8 1.989 4.654 8.64 24.587 9.676 29 .452 1.925 1.621 5.75 2.598 8.5 6.259 17.622 12.143 35.439 17.338 52.5 1.088 3.575 3.3 10.325 4.916 15 1.615 4.675 3.601 10.525 4.412 13 11.603 35.391 14.199 43.187 16.817 50.5.985 2.75 2.994 9.05 4.465 14 1.472 4.95 3.307 10.575 4.078 12.5.772 1.925 2.568 7.325 3.992 12 1.423 4.675 3.223 10.075 4 12 .776 1.925 2.591 7.325 4.032 12 2.954 9.581 6.525 19.082 8.838 23.518.855 1.64 1.557 3.584 1.561 4.32.003.736 1.629 5.011 3.613 9.5s4.615 11.087 5.846 14.662l5.513 16c3.965 11.506 5.195 14.227 6.646 14.707.64.212 2.635-4.207 4.704-10.42 1.976-5.933 5.648-16.637 8.159-23.787 2.511-7.15 6.1-17.5 7.977-23 1.876-5.5 6.184-17.875 9.572-27.5 14.784-41.99 19.204-54.786 20.436-59.161.722-2.564 1.623-5.164 2.002-5.778.584-.945 9.592-26.415 13.992-39.561 1.297-3.876 12.708-36.351 16.69-47.5 1.08-3.025 2.588-7.525 3.35-10 .762-2.475 3.467-10.35 6.01-17.5 5.935-16.68 12.317-34.891 14.02-40 .733-2.2 3.446-9.85 6.03-17 2.583-7.15 6.232-17.5 8.109-23 1.877-5.5 3.822-10.9 4.322-12 .931-2.047 4.143-10.56 8.677-23 1.403-3.85 3.367-9.025 4.363-11.5.996-2.475 5.716-14.625 10.488-27 4.771-12.375 9.533-24.425 10.581-26.777 1.048-2.352 1.906-4.918 1.906-5.703 0-2.045 2.169-6.52 3.161-6.52 1.252 0 1.067 401.082-.192 414.354-.566 5.97-1.666 12.378-2.444 14.24-1.987 4.755-7.255 11.049-11.192 13.372-3.331 1.965-3.333 1.972-3.333 9.878 0 6.138.371 8.219 1.653 9.284 2.574 2.136 42.5 2.389 73.581.465 14.154-.876 32.708-1.593 41.231-1.593h15.497l.661-2.635c.364-1.45.26-4.711-.231-7.248-.733-3.789-1.456-4.88-4.056-6.114-3.854-1.83-10.203-9.072-12.717-14.503-3.489-7.539-3.77-22.968-2.751-151.3.669-84.411.638-173.724-.098-281.2-1.199-174.858-.968-187.647 3.568-197.5 2.981-6.479 11.018-15.5 13.807-15.5.946 0 2.02-.944 2.386-2.099.893-2.811-.328-10.529-1.83-11.569-.661-.458-36.201-.717-78.978-.576M184 941l-2.136 3h-54.717l-3.186 5.567-3.185 5.568 1.222 11.182c1.051 9.608.883 66.165-.269 90.855-.177 3.798.35 5.48 2.823 9l3.042 4.328 28.262.266c22.253.209 28.728.565 30.453 1.674 1.95 1.254 2.631 1.16 6.191-.853 3.456-1.954 4.092-2.862 4.676-6.674 1.402-9.156.4-33.671-1.453-35.523-.373-.374-3.051-.896-5.951-1.161-2.9-.265-5.834-.93-6.522-1.478-1.594-1.27-1.614-4.987-.035-6.566.727-.727 1.375-5.177 1.611-11.065.313-7.797.042-10.595-1.3-13.424-2.378-5.012-1.738-7.188 2.127-7.231 3.851-.043 5.521-1.38 8.876-7.105 2.539-4.333 2.61-4.894 2.277-18.165-.341-13.563-.377-13.75-3.786-19.445-3.922-6.554-5.885-7.152-9.02-2.75m322.188-.041L503.94 944h-27.296c-27.043 0-27.314.021-29.308 2.25-6.178 6.907-7.825 13.548-4.586 18.491 1.593 2.432 1.75 6.264 1.75 42.759s-.157 40.327-1.75 42.759c-.962 1.469-1.75 4.11-1.75 5.868 0 3.513 5.107 12.325 8.059 13.904 1.036.555 13.125.969 28.303.969h26.493l2.072 2.635c1.14 1.449 2.073 3.249 2.073 4 0 .751.9 1.365 2 1.365 1.187 0 2-.667 2-1.639 0-.902 1.452-3.94 3.226-6.75 3.164-5.013 3.233-5.376 3.596-18.86.364-13.526.325-13.825-2.403-18.5-3.578-6.132-5.173-7.32-8.059-6.005-4.668 2.126-4.862 1.337-4.828-19.601.033-20.388.609-23.433 3.913-20.691 2.654 2.203 5.887.391 8.805-4.935 2.597-4.741 2.75-5.735 2.75-17.875 0-12.693-.043-12.935-3.396-19.249-3.968-7.474-6.131-8.378-9.416-3.936m-164.093 1.44c-3.955 4.21-6.095 11.785-6.095 21.578 0 5.603.539 10.184 1.439 12.239.791 1.806 1.698 4.516 2.016 6.021.819 3.889 4.512 6.106 7.975 4.79 3.875-1.474 10.862-1.265 13.129.391 1.825 1.334 1.959 3.032 2.237 28.461.25 22.845.055 27.508-1.25 30.033-2.08 4.022-2.114 16.377-.05 18.441.823.823 1.937 2.655 2.475 4.072.977 2.568 1.013 2.575 12.883 2.575h11.903l1.229-2.967c.676-1.632 1.856-3.487 2.622-4.122 1.899-1.576 1.829-12.929-.108-17.565-1.205-2.883-1.5-8.783-1.5-29.968 0-25.045.101-26.479 2-28.378 2.242-2.242 8.966-2.724 13.57-.973 3.463 1.316 7.156-.901 7.975-4.79.318-1.505 1.225-4.215 2.016-6.021.873-1.992 1.439-6.552 1.439-11.593 0-15.644-6.868-28.306-12-22.123-1.052 1.268-5.556 1.5-29.063 1.5-17.367 0-28.05-.374-28.434-.995-1.653-2.675-4.235-2.919-6.408-.606m765.879.161c-1.92 1.062-8.75 1.385-30.474 1.441l-28 .072-2.75 4.343-2.75 4.343V1061.9l3.071 4.55 3.071 4.55h29.806c25.275 0 29.996.228 31.052 1.5 4.31 5.194 10.465-4.867 11.665-19.069.516-6.097.199-8.416-2.159-15.821-1.519-4.772-3.492-9.058-4.384-9.524-.892-.465-3.044-.63-4.783-.366-5.062.77-5.632-1.457-5.153-20.117.247-9.651.883-16.957 1.586-18.235.806-1.467 2.558-2.34 5.612-2.798 2.586-.388 4.685-1.306 5.028-2.2 1.075-2.804 1.739-26.776.907-32.786-.769-5.557-1.064-6.053-4.845-8.155-3.579-1.99-4.302-2.086-6.5-.869m-139.474.4c-1.1.495-3.902.931-6.227.97-3.479.058-4.538.557-5.983 2.82-.965 1.513-2.539 3.33-3.498 4.039-2.288 1.694-7.925 11.407-10.276 17.711-2.609 6.991-3.345 29.478-1.072 32.724.856 1.222 1.556 3.41 1.556 4.864 0 1.453.9 3.786 2 5.185 2.352 2.99 2.645 8.947.526 10.705-.81.673-1.731 2.865-2.046 4.872-.315 2.008-1.189 5-1.942 6.65-.753 1.65-1.626 7.132-1.938 12.183l-.569 9.182 4.254 4.568c2.991 3.212 5.043 4.567 6.913 4.567 2.652 0 4.93 1.62 6.683 4.752 1.624 2.902 18.668 4.313 31.221 2.584 6.178-.851 6.918-1.24 11.542-6.062 2.717-2.834 6.642-8.549 8.721-12.699 2.079-4.151 4.197-7.804 4.707-8.12 1.205-.744 1.215-32.758.011-34.005-.504-.522-2.128-3.2-3.61-5.95-3.041-5.645-3.485-11.609-1.199-16.121.802-1.584 1.756-4.521 2.119-6.528.363-2.007 1.375-5.084 2.25-6.837 2.378-4.766 1.417-12.563-2.293-18.608-2.776-4.524-3.375-4.949-7.688-5.453-3.615-.422-5.3-1.261-7.42-3.693-2.262-2.597-3.705-3.25-8.242-3.732-12.132-1.29-16.59-1.427-18.5-.568m-738.905 5.468L227 952.856v109.288l2.615 4.462 2.615 4.461 10.053-.283 10.053-.284 3.014-4.908c1.859-3.028 2.952-6.092 2.853-8-1.387-26.849-1.37-30.208.16-31.478 2.162-1.794 3.088-.942 6.697 6.16 2.854 5.616 7.264 12.916 11.918 19.726.939 1.375 1.948 4.635 2.242 7.244.334 2.975 1.53 6.051 3.207 8.25l2.675 3.506h9.015c4.958 0 9.842-.443 10.853-.984 1.011-.541 3.273-3.314 5.025-6.162 3.453-5.613 3.552-7.931.654-15.354-2.33-5.969-2.322-76.064.01-82 3.076-7.833 2.858-10.465-1.373-16.5l-3.855-5.5-10.192-.285-10.192-.284-3.005 4.784c-3.429 5.462-3.958 11.395-1.649 18.5 2.668 8.209 3.05 22.785.597 22.785-.436 0-1.849-1.657-3.141-3.682l-6.537-10.25c-6.451-10.116-9.255-15.854-9.972-20.404-.361-2.29-1.716-5.851-3.011-7.914l-2.354-3.75H232.19l-2.595 4.428m322 0L549 952.856v109.288l2.595 4.428 2.595 4.428h9.714c10.99 0 11.518-.245 16.01-7.446 3.454-5.536 3.862-9.001 1.463-12.426-2.068-2.953-3.027-14.045-1.465-16.963.834-1.56 2.096-2.165 4.515-2.165 2.924 0 3.563.482 4.969 3.75.888 2.063 1.996 4.425 2.462 5.25 1.638 2.895 5.142 14.904 5.161 17.687.01 1.547 1.361 4.951 3.002 7.563l2.983 4.75h22.659l3.169-4.89c4.439-6.852 4.344-12.598-.336-20.11-1.884-3.025-4.129-6.85-4.988-8.5a159.125 159.125 0 00-3.02-5.5c-1.68-2.88-1.991-11.571-.447-12.525 2.534-1.566 6.389-9.496 7.517-15.464.677-3.581 1.947-8.41 2.822-10.731 1.629-4.325 1.349-11.819-.583-15.584-.509-.993-1.355-4.47-1.88-7.728-.974-6.053-6.368-16.706-9.709-19.179-.959-.709-2.533-2.526-3.498-4.039l-1.756-2.75H554.19l-2.595 4.428m114.182-3.178c-2.459 1.915-7.777 10.893-7.777 13.13 0 1.094.92 3.888 2.043 6.21 1.97 4.068 2.033 5.663 1.75 44.065-.265 36.05-.46 40.081-2.043 42.318-2.528 3.571-2.167 6.967 1.336 12.581 4.492 7.201 5.02 7.446 16.01 7.446h9.714l2.595-4.428c2.446-4.174 2.595-5.201 2.595-17.918 0-7.42.273-14.202.607-15.072.49-1.277 2.305-1.582 9.405-1.582 8.591 0 8.898-.083 12.988-3.5 2.304-1.925 5.249-3.5 6.544-3.5 2.745 0 5.62-3.5 10.678-13 4.687-8.802 5.77-18.005 4.298-36.5-.721-9.062-1.158-10.626-4.656-16.671-2.123-3.669-5.733-8.507-8.021-10.75L719.682 944h-26.15c-19.397 0-26.564.323-27.755 1.25m103.632 2.894l-2.616 4.144v110.424l2.616 4.144 2.616 4.144h9.053c4.98 0 9.868-.436 10.863-.969.996-.532 3.216-3.159 4.935-5.837 3.402-5.303 4.025-10.42 1.65-13.556-1.817-2.399-2.839-11.271-1.743-15.138.717-2.531 1.414-3.048 4.463-3.306 3.541-.3 3.671-.181 6.546 6 3.393 7.297 5.736 14.489 6.715 20.616.379 2.37 1.85 6.083 3.269 8.25l2.579 3.94h22.503l3.071-4.55c2.54-3.763 3.071-5.54 3.071-10.272 0-4.998-.502-6.477-3.972-11.699-2.184-3.289-3.984-6.335-4-6.769-.015-.435-.924-2.01-2.02-3.5-1.096-1.491-2.283-4.852-2.638-7.471-.602-4.447-.367-5.156 3.572-10.771 3.153-4.496 4.427-7.455 5.053-11.74.46-3.15 1.549-7.401 2.421-9.446 2.129-4.997 1.995-10.664-.416-17.522-1.1-3.13-2-6.957-2-8.504 0-3.639-5.466-14.453-8.955-17.718-1.492-1.396-3.253-3.551-3.914-4.788L830.93 944h-58.905l-2.616 4.144m110.583.368c-5.001 7.268-5.477 9.604-3.067 15.051 1.986 4.489 2.075 6.388 2.075 44.119 0 36.678-.133 39.72-1.91 43.623-2.413 5.299-1.858 8.143 2.787 14.294l3.701 4.901 10.012.283 10.012.283 2.753-4.206 2.754-4.206.02-55.249.021-55.249-2.325-4.07-2.325-4.071-10.702-.007-10.702-.008-3.104 4.512" fill="undefined" fill-rule="evenodd"/></svg>